<svg width="38" height="34" viewBox="0 0 38 34" fill="none" xmlns="http://www.w3.org/2000/svg">
<path d="M28.9058 3.40643C29.4607 2.8287 30.2815 2.76451 30.9057 3.20101C30.8364 3.17533 30.7555 3.16249 30.6745 3.14965C30.1659 3.13682 29.7266 3.57332 29.715 4.13821C29.7035 4.70309 30.0965 5.1781 30.6167 5.20377C31.1254 5.21661 31.5531 4.78011 31.5762 4.20239C31.5762 4.15104 31.5762 4.09969 31.5762 4.04834C31.819 4.72877 31.6803 5.52474 31.1716 6.06395C30.5127 6.75721 29.4607 6.7187 28.848 5.97408C28.2238 5.2423 28.2584 4.07401 28.9289 3.39358L28.9058 3.40643ZM30.6052 17.9265C33.553 13.0094 34.7668 5.07539 34.7668 5.07539L37.8765 3.61183C38.0731 3.50913 38.0268 3.20101 37.7956 3.18817L34.4894 3.07263C34.0039 1.9557 32.2698 0.10699 29.6225 0.00428389C28.0504 -0.0470692 26.6747 0.363749 25.4146 1.21107C25.4146 1.21107 23.5881 2.49491 20.8946 4.9085L12.6868 12.0209C12.051 12.5729 11.2881 12.9067 10.2476 12.8682L0.201833 12.4959C-0.0871716 12.4959 0.00530436 12.7527 0.0515452 12.9067C0.687356 15.346 2.51387 17.5542 5.80853 17.6826L3.36933 20.2631C3.27685 20.3658 3.26529 20.6225 3.49649 20.6354L12.4556 20.9692C18.9409 21.2131 23.0101 18.2218 25.7614 13.9338C25.9926 13.5743 26.2123 13.1892 26.4319 12.8169C26.5244 12.8682 26.536 12.9838 26.4897 13.0993C25.773 14.8582 24.0159 18.4144 20.9293 20.4428C19.8657 21.0847 19.5305 21.2773 18.0508 21.855C17.9467 21.8935 17.9005 22.0091 17.9467 22.1631L21.6113 33.7176L23.8424 34L20.4553 23.1773C22.6171 23.2544 27.6458 22.8307 30.5936 17.9137L30.6052 17.9265ZM22.6517 24.8206L25.38 33.1912L27.5533 33.5892L24.5939 24.474C24.0274 24.6024 23.3569 24.7436 22.6402 24.8206H22.6517Z" fill="#E0001A" style="fill:#E0001A;fill:color(display-p3 0.8784 0.0000 0.1020);fill-opacity:1;"/>
</svg>
