<svg width="130" height="40" viewBox="0 0 130 40" fill="none" xmlns="http://www.w3.org/2000/svg">
<path d="M49.5547 29.6289C49.5547 31.8639 50.6502 33.1073 52.6416 33.1074C53.9373 33.1074 55.4766 32.2639 56.1289 31.4639V14.8789H63.8438V29.6289C63.8438 31.8638 65.0434 33.1073 67.1826 33.1074C68.3828 33.1074 69.7745 32.264 70.4268 31.4639V14.8789H78.1934V38.7861H71.9141L71.418 36.1514C69.7222 37.9428 67.6352 39.2909 63.8438 39.291C60.6607 39.291 58.4688 38.195 57.2773 36.0469C55.5293 37.8906 53.3377 39.291 49.5547 39.291C44.328 39.291 41.8321 36.4473 41.832 30.6729V14.8789H49.5547V29.6289ZM92.8906 14.3838C98.3173 14.3838 101.213 15.0788 103.753 15.8789V38.7861H97.4219L97.0215 36.1514C95.6996 38.0646 93.3168 39.2562 89.8643 39.291H89.6211C83.8987 39.2562 80.9415 35.7689 80.9414 27.7334C80.9414 19.1149 85.1679 14.3838 92.8906 14.3838ZM9.4707 38.8037H0C1.19143 35.0642 2.35638 31.7768 3.45215 28.7852H12.6709L9.4707 38.8037ZM31.3174 6.59961C34.1088 6.59967 35.996 8.29535 36.5527 9.34766H40.04C40.2836 9.34766 40.3358 9.64369 40.1357 9.74805L36.9014 11.2432L36.8984 11.2422C36.8629 11.4979 35.8787 18.449 33.1807 23.1465L32.9092 23.6016L32.625 24.0371C29.6142 28.4138 24.4193 28.9854 22.2119 28.9854L25.7256 38.8037H23.5342L19.6982 28.0889C19.655 27.9414 19.69 27.8288 19.8027 27.7939C21.3421 27.1939 21.6904 26.9931 22.7949 26.3408H22.7959C25.9778 24.2971 27.7251 20.8628 28.4209 19.167C28.4665 19.0757 28.4592 18.9841 28.3926 18.9277L28.3604 18.9053C28.143 19.2704 27.9261 19.6358 27.6914 19.9922C24.9259 24.1666 20.7163 27.1415 13.8721 27.1416H4.40137C4.14941 27.1416 4.14888 26.8898 4.25293 26.7939L6.74023 24.2451C3.25288 24.2451 1.25289 22.2013 0.513672 19.9141C0.461485 19.7662 0.357001 19.5147 0.661133 19.5146H11.2803C12.376 19.5146 13.1671 19.166 13.8193 18.6182L22.2393 11.5791C22.2445 11.5746 22.2497 11.57 22.2549 11.5654C25.0118 9.1825 26.9082 7.89551 26.9082 7.89551C28.2127 7.0433 29.6564 6.59961 31.3174 6.59961ZM29.917 38.8037H27.7256L24.7344 30.4287C25.482 30.3331 26.1774 30.1761 26.7773 30.0283L29.917 38.8037ZM35.3008 22.6016C37.2489 27.5848 39.3361 33.0204 41.2842 38.8037H31.917L28.5693 29.3682C32.1436 27.6375 33.6832 25.9498 35.3008 22.6016ZM115.016 23.6455H122.286V14.8789H130V38.7861H122.286V29.7764H115.016V38.7861H107.24V14.8789H115.016V23.6455ZM92.7432 20.5576C90.2559 20.5576 89.0029 22.8543 89.0029 27.4375C89.003 31.1682 90.1512 33.1162 92.2471 33.1162C94.1343 33.1162 95.2828 32.264 95.9785 31.4639V20.9062C94.935 20.6628 94.1866 20.5576 92.7432 20.5576ZM28.0098 26.2891C27.9118 26.2999 27.8128 26.3089 27.7129 26.3164C27.8128 26.309 27.9118 26.2999 28.0098 26.2891ZM16.6914 24.2373C17.1173 24.2264 17.558 24.2032 18.0117 24.1602C17.558 24.2032 17.1173 24.2264 16.6914 24.2373ZM16.0879 17.5391C14.3508 19.4208 12.5619 21.5511 10.8535 23.9062C10.7885 24.004 10.8148 24.1125 10.8799 24.1797C10.8156 24.1124 10.7917 24.004 10.8623 23.9062C12.8103 21.2147 14.8648 18.8167 16.8291 16.748L16.0879 17.5391ZM25.1924 21.4912C24.922 21.6825 24.6533 21.8612 24.3857 22.0273C24.6533 21.8612 24.922 21.6825 25.1924 21.4912ZM27.2432 19.7979C26.9674 20.0596 26.6929 20.3067 26.4189 20.5391L26.8311 20.1797C26.9684 20.0564 27.1054 19.9286 27.2432 19.7979ZM26.0293 -0.575195C26.4815 0.320563 27.4215 2.34668 28.7607 5.28613C26.5865 5.90361 24.977 7.19085 22.3506 9.34766C21.8028 7.99981 21.2988 6.75611 20.751 5.50391C19.6552 7.85193 18.6026 10.6434 17.6025 13.3828L12.8193 17.3232C12.3236 17.7667 11.7231 17.8711 11.0273 17.8711H7.19238C11.132 8.34808 14.5154 1.32071 15.4111 -0.575195H26.0293ZM19.6836 13.8955V13.8965V13.8955ZM33.0518 9.78516C32.3694 9.17648 31.3196 9.19797 30.665 9.85254C29.9868 10.5309 29.9867 11.6352 30.665 12.3135C31.3434 12.9918 32.4476 12.9917 33.126 12.3135C33.7846 11.6548 33.8021 10.596 33.1816 9.91406C33.4385 10.2368 33.4205 10.7071 33.127 11.0088C32.8052 11.3218 32.2915 11.3217 31.9697 11.0088C31.6479 10.687 31.6479 10.1733 31.9697 9.85156C32.2676 9.55372 32.7295 9.53162 33.0518 9.78516ZM35.7002 10.3916C35.6263 10.4655 35.6021 10.5396 35.6152 10.6016C35.6185 10.6169 35.6242 10.6318 35.6318 10.6455C35.6549 10.6869 35.6975 10.7197 35.7529 10.7393C35.6051 10.6871 35.5533 10.5394 35.7012 10.3916H35.7002Z" fill="white" style="fill:white;fill-opacity:1;"/>
</svg>
