<?xml version="1.0" encoding="utf-8"?><svg xmlns="http://www.w3.org/2000/svg" xmlns:xlink="http://www.w3.org/1999/xlink"><symbol viewBox="0 0 18 18" id="icon-arrow-down" xmlns="http://www.w3.org/2000/svg"><path fill-rule="evenodd" clip-rule="evenodd" d="m14.47 5.47 1.06 1.06L9 13.06 2.47 6.53l1.06-1.06L9 10.94l5.47-5.47Z"/></symbol><symbol viewBox="0 0 46 46" id="icon-doc" xmlns="http://www.w3.org/2000/svg"><path d="M43.925 22.931C43.887 11.375 34.488 2.037 22.93 2.075 11.375 2.113 2.037 11.512 2.075 23.07c.038 11.556 9.437 20.894 20.994 20.856l.006 2c-12.66.041-22.958-10.189-23-22.85-.041-12.66 10.189-22.958 22.85-23 12.66-.041 22.958 10.189 23 22.85.041 12.66-10.189 22.958-22.85 23l-.006-2c11.556-.038 20.894-9.437 20.856-20.994Z"/><path d="M18.287 19.209a.797.797 0 0 1 .797-.797h8.5a.797.797 0 1 1 0 1.594h-8.5a.797.797 0 0 1-.797-.797Zm.797 5.047h8.5a.797.797 0 1 0 0-1.594h-8.5a.797.797 0 1 0 0 1.594Zm4.25 2.656h-4.25a.797.797 0 1 0 0 1.594h4.25a.797.797 0 0 0 0-1.594Zm12.484-14.078v14.435a1.853 1.853 0 0 1-.544 1.315L28.459 35.4a1.853 1.853 0 0 1-1.315.544H12.71a1.86 1.86 0 0 1-1.86-1.86V12.835a1.86 1.86 0 0 1 1.86-1.86h21.25a1.86 1.86 0 0 1 1.86 1.86ZM12.71 34.349h14.078v-6.64a.796.796 0 0 1 .797-.797h6.64V12.834a.266.266 0 0 0-.265-.266H12.71a.265.265 0 0 0-.266.266v21.25a.265.265 0 0 0 .266.265Zm20.39-5.843h-4.72v4.717l4.717-4.717Z"/></symbol><symbol viewBox="0 0 230 42" id="icon-gazprom" xmlns="http://www.w3.org/2000/svg"><g clip-path="url(#ca)"><path d="M21.44 0C9.61 0 0 9.425 0 21s9.626 21 21.44 21c11.816 0 21.442-9.425 21.442-21S33.272 0 21.44 0Zm0 40.78c-11.15 0-20.181-8.868-20.181-19.772 0-10.904 9.055-19.78 20.182-19.78 11.127 0 20.182 8.868 20.182 19.772 0 10.904-9.032 19.772-20.182 19.772v.008Z"/><path d="M15.803 27.634c1.282-.496 3.268-.907 5.63-1.373 7.82-1.593 15.256-3.248 15.256-7.678 0-1.09-.571-2.135-1.736-3.035.031-.221.047-.442.047-.679 0-1.715-1.267-3.347-4.027-4.453-1.369-2.692-5.169-4.232-9.548-4.232-2.744 0-5.755.55-8.195 1.884v.96c3.464-1.631 6.436-1.738 8.195-1.738 1.478 0 5.255.328 7.038 2.379-1.838-.404-4.082-.648-6.78-.648-4.824 0-9.47 1.418-12.699 3.462v1.021c2.722-1.456 6.623-3.095 12.7-3.095 5.395 0 11.04 1.22 11.142 3.934-2.502-1.075-6.232-1.754-11.237-1.754-6.732 0-12.065 2.074-14.708 3.592v1.022c4.559-2.296 9.72-3.18 14.63-3.18 2.033 0 3.894.122 5.536.35-1.282.496-3.268.908-5.63 1.373-7.82 1.594-15.255 3.249-15.255 7.679 0 1.09.57 2.135 1.736 3.042a4.788 4.788 0 0 0-.047.679c0 1.716 1.266 3.348 4.027 4.453 1.368 2.692 5.168 4.232 9.547 4.232 2.745 0 5.755-.549 8.195-1.883v-.961c-3.464 1.632-6.436 1.738-8.195 1.738-1.478 0-5.255-.327-7.037-2.379 1.837.405 4.081.649 6.78.649 4.824 0 9.468-1.419 12.698-3.462V28.51c-2.721 1.456-6.623 3.096-12.699 3.096-5.395 0-11.04-1.22-11.143-3.935 2.503 1.075 6.232 1.754 11.237 1.754 6.733 0 12.065-2.074 14.708-3.592v-1.021c-4.559 2.295-9.72 3.18-14.63 3.18-2.033 0-3.894-.123-5.536-.351v-.008Zm18.837-9.38c0 2.868-4.957 4.317-13.2 5.971-4.355.877-7.256 1.853-8.57 2.83-.922-.244-1.712-.52-2.384-.84 1.071-1.418 4.183-2.546 10.955-4.11 7.78-1.791 11.416-3.133 12.824-4.94.25.343.383.709.383 1.082l-.008.008ZM8.234 23.746c0-2.867 4.95-4.331 13.199-5.97 4.316-.862 7.17-1.8 8.554-2.837.93.244 1.729.526 2.401.846-1.071 1.411-4.191 2.54-10.955 4.11-7.765 1.8-11.4 3.142-12.816 4.95-.25-.344-.383-.71-.383-1.091v-.008Zm53.039-8.106v15.425H56.26V10.957h10.9v4.682h-5.888Zm15.686 12.177h-4.387l-.618 3.24h-4.918l4.12-20.107h7.304l4.12 20.108h-5.01l-.618-3.241h.008Zm-.884-4.682-1.298-6.84-1.322 6.84h2.62Zm10.329 7.335a6.809 6.809 0 0 1-2.603-2.813c-.587-1.182-.884-2.478-.884-3.897h5.012c0 1.075.235 1.876.712 2.418.469.533 1.11.808 1.915.808.728 0 1.275-.214 1.65-.648.368-.435.563-.961.563-1.594 0-.633-.234-1.174-.688-1.563-.461-.397-1.07-.587-1.845-.587h-1.533v-4.019h1.556c.83 0 1.431-.183 1.814-.556.384-.374.571-.793.571-1.251 0-.557-.187-.984-.563-1.281-.375-.297-.852-.442-1.438-.442-1.26 0-2.041.724-2.354 2.18h-5.012c.133-2.127.844-3.774 2.119-4.956 1.274-1.182 2.979-1.769 5.098-1.769 1.353 0 2.541.236 3.566.701 1.024.466 1.806 1.099 2.353 1.876.548.786.83 1.647.83 2.585 0 1.114-.243 2.06-.72 2.844a4.521 4.521 0 0 1-2.018 1.777 4.76 4.76 0 0 1 2.338 1.77c.602.83.9 1.867.9 3.118 0 1.129-.298 2.18-.9 3.142-.602.968-1.446 1.746-2.549 2.325-1.102.587-2.361.877-3.8.877-1.572 0-2.932-.35-4.082-1.044h-.008Zm26.884.588h-5.013V15.632h-3.972v15.426h-5.012v-20.1h13.997v20.107-.007Zm7.874-6.055v6.062h-5.013V10.957h6.037c2.064 0 3.738.588 5.036 1.77 1.298 1.181 1.947 2.928 1.947 5.238 0 2.31-.649 4.095-1.947 5.27-1.298 1.181-2.979 1.768-5.036 1.768h-1.032.008Zm.711-4.682a2.5 2.5 0 0 0 1.603-.549c.462-.366.688-.968.688-1.807s-.234-1.441-.688-1.8a2.592 2.592 0 0 0-1.603-.533h-.711v4.682h.711v.007Zm9.954 8.373c-1.227-1.883-1.845-4.453-1.845-7.71 0-3.255.618-5.795 1.845-7.67 1.228-1.876 3.206-2.814 5.935-2.814 2.729 0 4.708.938 5.935 2.814 1.228 1.876 1.846 4.43 1.846 7.67 0 3.241-.618 5.826-1.846 7.71-1.227 1.883-3.206 2.829-5.935 2.829-2.729 0-4.707-.938-5.935-2.83Zm8.031-3.188c.453-.983.68-2.493.68-4.521 0-2.029-.227-3.5-.68-4.484-.454-.976-1.15-1.464-2.088-1.464-.938 0-1.642.488-2.088 1.464-.453.976-.68 2.47-.68 4.484 0 2.013.227 3.538.68 4.521.454.984 1.15 1.48 2.088 1.48.938 0 1.642-.496 2.088-1.48Zm7.71 5.552v-20.1h4.566l3.707 5.543 3.589-5.544h4.566v20.108h-5.004V20.093l-3.151 4.651-3.269-4.766v11.087h-5.012l.008-.007Zm30.316-11.202c1.219 1.052 1.829 2.578 1.829 4.568 0 2.242-.602 3.904-1.798 5.002-1.196 1.09-2.87 1.64-5.004 1.64h-6.037V10.957h11.283v4.681h-6.271v2.646h1.032c2.104 0 3.761.526 4.981 1.579l-.015-.008Zm-3.754 6.093c.407-.29.602-.847.602-1.663 0-1.456-.719-2.18-2.15-2.18h-.711v4.277h.711c.626 0 1.142-.144 1.548-.434Zm15.921 1.868h-4.387l-.618 3.24h-4.918l4.121-20.107h7.303l4.121 20.108h-5.012l-.618-3.241h.008Zm-.884-4.682-1.298-6.84-1.321 6.84h2.619Zm22.082-12.178v20.108h-5.012v-8.128h-3.972v8.128h-5.005V10.957h5.005v7.298h3.972v-7.297h5.012Zm2.87 20.108V10.957h5.012v7.29h.563l3.089-7.29h5.45l-4.152 9.136L230 31.065h-5.888l-4.332-8.128h-.649v8.128h-5.012Z"/></g><defs><clipPath id="ca"><path d="M0 0h230v42H0z"/></clipPath></defs></symbol></svg>